<?xml version="1.0" encoding="utf-8"?>
<!-- Generator: Adobe Illustrator 18.1.1, SVG Export Plug-In . SVG Version: 6.00 Build 0)  -->
<svg version="1.1" id="Layer_1" xmlns="http://www.w3.org/2000/svg" xmlns:xlink="http://www.w3.org/1999/xlink" x="0px" y="0px"
	 viewBox="0 0 15000 10000" enable-background="new 0 0 15000 10000" xml:space="preserve">
<rect y="0" fill="#CE1126" width="15000" height="3333.3"/>
<rect y="3333.3" fill="#FFFFFF" width="15000" height="3333.3"/>
<rect y="6666.7" width="15000" height="3333.3"/>
<g>
	<g>
		<path fill="#C9A328" d="M7997.9,5514c10,36.1,20,72.1,30.1,108.2c25.4,90.5,51.2,180.8,76,271.4c6.1,22.2,13.7,36.3,39.9,23.9
			c41.2-19.6,81.2-6.6,120.1,7.5c36.2,13.1,59.9,59.8,51.7,102.8c-4.4,23.1-0.7,37.8,22.4,45.9c6.4,2.2,12.6,6,17.6,10.5
			c26.9,24.4,53.4,49.2,76.8,70.8c-10.6,23.3-22.2,49-34,74.7c-2.4,5.2-4.3,11.4-8.3,14.9c-24.8,21.9-34.5,50-44.5,81.1
			c-6.3,19.6-32.9,41.4-53.9,45.9c-101.7,21.9-204,43.2-307.3,55.7c-222.8,26.9-447,27.8-670.8,20.5
			c-200.4-6.6-400.8-19.3-596.1-72.5c-42.3-11.5-70.4-32.2-72.1-79.1c-0.2-5.6-1-12-4-16.5c-27.1-41.8-54.7-83.3-81.4-123.7
			c38-29.6,76.2-58.3,112.8-88.9c7.3-6,12.5-19.5,11.9-29.2c-5.7-92.7,61.9-150.6,150.4-126c53.6,14.9,47.6,22.7,65.2-38.2
			c30.5-105.7,60-211.6,89.6-317.5c3.2-11.5,5-23.5,0.7-39.5c-183.2,165.8-366.3,331.7-557.4,504.7c0-28.7-0.7-46.6,0.1-64.4
			c10.6-236.3,21.6-472.5,32.1-708.8c5.6-126.2,10.2-252.4,15.5-378.6c9.2-219.1,17.4-438.3,28.4-657.3
			c6.4-126.5,98.4-194.8,224.9-160.8c73.3,19.7,144,52.6,211.9,87.4c80,41,161.8,69.3,251.7,74.2c21.8,1.2,35.9-5.5,48.5-24.1
			c76.3-112.8,121.1-236.3,128.7-372.5c1.3-23.7-1.4-48.6-7.6-71.5c-17.8-66.3-72.1-90.8-140.1-62.7c-17.2-31.4-8.4-61.6,5.2-90.1
			c16.4-34.3,51.2-29.3,81.2-33.3c5.4-0.7,11.3,2.8,16.9,2.6c33.4-0.9,67.7,22,100.5-8.6c8.7-8.1,31.1-3,47-1.3
			c17,1.8,33.9,5.7,50.4,10.2c110.1,30.2,152.8,41.8,161.5,201.9c5.8,107.5-2.9,216.1,27.8,321.2c9.6,32.9,21.8,65.1,32.7,97.7
			c7.5,22.3,21,32.1,46.3,30.8c91.2-4.6,175.7-29.5,254.7-75.1c78.8-45.5,159.5-85.6,252.9-92.6c133.8-9.9,179.6,78.1,184.9,169.4
			c9.9,170.8,15.1,341.8,22.3,512.8c9.4,224.9,18.9,449.7,28.4,674.6c6.6,157.2,13.2,314.3,20.1,471.5c2,45.3,4.8,90.7,7.3,136
			c-3.1,1.4-6.1,2.9-9.2,4.3c-183.1-169.2-366.2-338.4-549.2-507.5C8005.2,5509,8001.5,5511.5,7997.9,5514z M6718,5745.6
			c29.3-23.3,54.8-40.2,55.6-80.2c1.9-98.7,7.3-197.4,11.8-296c8.7-189.3,18-378.5,26.6-567.7c5.3-117,9.4-234.1,14.7-351.1
			c1.4-31.1,5.5-62.1,8.7-96.8c20.9,16.7,39.9,28.5,54.2,44.5c10.2,11.4,19.8,28.6,19.8,43.1c-0.1,62-3.8,123.9-6.4,185.9
			c-9,219.1-17.9,438.3-27.1,657.4c-3.2,76.9-7.8,153.6-10.9,230.5c-1.2,30-0.2,60-0.2,96c30.1-23.1,55.9-38.2,57.2-75.5
			c5.9-162.9,13.7-325.8,20.2-488.7c7.6-190.5,14.5-381,22-571.5c0.3-8.7,2.9-17.2,3.5-20.3c198.6,34.7,371.3-26.7,540.8-118.4
			c50.9,48.9,119,73.6,189.1,92c107.9,28.2,216.1,62.2,332.4,19.8c1.6,10,4,19.6,4.4,29.4c4.8,105.5,9.6,211.1,13.8,316.6
			c9.7,242.1,19.6,484.2,27.9,726.4c1.4,39.9,24.7,57.6,56.8,77c1.3-11.6,3-19.2,2.7-26.7c-5.1-133.1-10.5-266.2-15.8-399.4
			c-2.3-57.4-4.5-114.7-7-172.1c-8.2-187-16.6-374-24.2-561c-0.4-10.5,2.2-24.5,9-31.1c19.3-18.9,41.6-34.8,68.1-56.3
			c3.3,78.7,5.9,150.6,9.4,222.4c8.2,170.9,17.2,341.7,24.9,512.6c6,133.1,10.3,266.2,16,399.3c2.6,60.8,7.3,121.5,10,182.2
			c1.5,35.1,26.6,48.3,55.3,69.3c0-20.4,0.5-32.9-0.1-45.4c-6.6-150.3-13.7-300.5-19.9-450.8c-5.6-135.4-9.7-270.9-15.3-406.2
			c-3.3-79.1-8.8-158.2-12.1-237.3c-3.7-90.7-6.4-181.4-8.5-272.1c-0.2-10.3,3.4-23.9,10.3-30.7c26.9-26,55.8-49.9,87.1-77.3
			c3,48,6.5,91.1,8.3,134.4c5.6,131.9,10.2,263.9,16,395.9c10.7,242,22,484,32.9,726c5.2,114.7,10.2,229.4,14.9,344.2
			c1.2,28.6,11.1,50.3,46.7,63.2c-23.8-566.9-47.5-1129.7-71.5-1700.1c40.9,21.2,72.9,37.7,106,54.8c14.9-121-79.6-201-202.2-176.6
			c-77.6,15.5-145.9,52.3-216.1,86.6c-60.1,29.3-125.2,49-189.1,69.4c-27.1,8.6-57,8.4-89.5,12.6c8.6,13.3,13.8,21.5,24.9,38.5
			c-42.4-6.5-76.3-11.7-111.2-17c0,12,0,21.6,0,33.5c-54.9,5-93.5-28.6-143.2-55.9c-16.8,20.6-33.9,41.7-56.5,69.4
			c-20.2-26.2-37-48-52.2-67.7c-44.1,28.1-81.8,52.1-126.6,80.6c6.3-32.1,10.3-52.8,14.8-75.8c-47.1,15-90.4,28.8-133.7,42.6
			c-1.3-3.1-2.6-6.3-3.9-9.4c7.1-12.1,14.3-24.1,23-38.9c-9.5-2.4-14.8-4.8-20-4.9c-100.2-3.2-188.6-39.8-276-86.6
			c-60.9-32.7-127.3-58.7-194.3-75.5c-120.8-30.3-217,54.5-201.8,174.3c33.6-16.9,66.5-33.4,105.9-53.2
			c-24,571.6-47.7,1135.1-71.6,1702.3c36.4-12.4,45.4-35.1,46.5-63.2c5.1-125.1,10.4-250.1,15.6-375.2
			c4.9-118.2,9.3-236.4,14.5-354.5c11.1-250,22.5-500.1,34.2-750.1c1.8-39.1,5.7-78,9.1-122.3c27.8,23.8,49.6,44.2,73.1,62.3
			c19.3,14.9,25.4,32.5,24.1,56.5c-3.8,71.1-5.4,142.3-8.2,213.4c-4.7,121.6-9.1,243.3-14.5,364.9c-10.8,242-22.3,484-33.1,726.1
			C6716.8,5674.8,6718,5707.7,6718,5745.6z M7074.1,6149.2c-14.5-24.1-27-46.9-41.6-68.2c-5.2-7.6-14.8-14.9-23.6-16.9
			c-72.5-16.7-145.2-32.7-218.1-47.9c-37.8-7.9-73.3,15-79.6,52.1c-3.2,19-10.1,27.3-30,29.8c-26.7,3.5-71.7,56.7-67,77.4
			c6.5,28.8,11.2,58.6,41.7,75.6c7.7,4.3,12.3,18.4,13.7,28.6c6.7,48.3,15.3,58.9,61.2,70.3c18.9,4.7,37.7,9.9,56.7,13.9
			c216.6,46.1,436.7,55.9,656.9,58.8c123.9,1.6,248-5.1,371.9-10.4c153.7-6.6,306-25.1,455.7-62.3c36.7-9.1,54.2-30.1,57-67.2
			c0.8-11.2,5.8-26.8,14.1-31.8c33.3-20.2,47.4-56.9,39.9-85.1c-8.1-30.1-31.1-63.7-72.7-69.8c-8.2-1.2-18.6-12.9-21.1-21.8
			c-14.4-49.4-41.9-66.3-91.7-55.2c-68.2,15.2-136.6,29-204.7,44.6c-9.9,2.3-20.8,9.6-26.7,17.8c-14.9,21-27.1,43.9-41.1,67.1
			c-5.2-9.4-8.3-20.1-15.2-26.7c-16.5-15.8-26.3-39.5-57.1-37.9c-72.1,3.8-144.5,3.8-216.7,6.5c-10.1,0.4-21.8,4.5-29.7,10.7
			c-21.3,16.7-40.9,35.4-65.9,57.5c-7-18.7-12.7-37.8-21.3-55.5c-3.7-7.7-13.4-17.7-20.1-17.5c-7,0.1-16.2,10.1-20,18
			c-8.6,17.6-14.5,36.5-23.5,60.3c-7.6-10.5-9.9-14.2-12.8-17.4c-29.9-33.2-58.9-62.4-111.8-57c-53.4,5.4-108.8,6-161.5-2.7
			c-43.4-7.2-64.1,12.4-84.9,41C7080.1,6134,7077.7,6141.5,7074.1,6149.2z M7671.7,4279.6c2.4-3.8,4.8-7.7,7.3-11.5
			c-18.8-57.1-41.3-113.4-55.2-171.7c-13.8-58.1-19-118.3-27.9-177.6c3.5-0.5,7.1-1.1,10.6-1.6c0.9,5.5,1.7,11.1,2.8,16.6
			c15.2,79.7,26.6,160.4,46.9,238.8c16.3,63,43.7,76.4,114.4,73.9c-14.1-30.3-30-59.2-41.3-89.9c-37.5-101.3-48.3-206.7-48.5-314.3
			c-0.1-55.8-7.8-111.7-15.3-167.1c-1.9-13.8-13.6-30.8-25.7-37.7c-30.2-17.1-110.7,0.7-138.5,25.6c-5.6,5-17.7,10.3-22.5,7.7
			c-38.5-21.4-74.5-48-114.3-66.3c-26.5-12.2-58.4-19.6-87.2-17.9c-42.3,2.5-56.3,32.5-42,77.6c4.7-4.2,9.1-7.4,12.6-11.4
			c28-32.9,48.5-37.9,87.1-19c44.7,21.9,75.4,57.8,101,101.2c-55.1,0.9-52.9,0.9-50.8,57c1.3,34.1-3.7,68.7-8.6,102.6
			c-17.7,120.8-69.9,227.2-139.9,325.7c-7.4,10.3-13.5,21.5-20.3,32.3c72.3-12.7,135.7-33.3,157.8-110.2
			c7.3-25.3,17.5-49.8,23.7-75.4c13.4-55,25.1-110.5,38.6-170.9c3.1,7.9,5.5,10.8,5.1,13.3c-16.4,99.6-33.8,198.7-82.3,289.4
			c-12.8,23.9-19.8,51-29.4,76.6c3.4,1.7,6.8,3.4,10.2,5.1c49.3-27.7,100.4-53.6,111.8-118.8c4.7-27,11.6-53.8,15.4-80.9
			c8.5-61.7,15.7-123.5,23.4-185.3c5.5,9.7,7.5,19.5,6.1,28.9c-11.8,82.7-21.4,165.8-37.4,247.7c-11.2,57.1-13.2,61.8,45.2,103.4
			c15.2-25.5,40.8-49.7,42.8-75.9c3.9-50.9-6.8-102.7-8.9-154.2c-1.9-47.2-0.4-94.5-0.4-141.7c6.8,7.1,8,14.5,8.3,22
			c2.3,68.9,2.6,137.9,7.2,206.6c2.1,31.1,3.2,69.9,21.4,90.5C7598.5,4249.4,7638.7,4261.3,7671.7,4279.6z M7949.8,4480.2
			c-162.1-10.5-314.6-40-446.8-130.7c-140.2,84.3-292.4,120.2-457.8,131.1c3.4,50.3,4.3,99.4,10.3,148
			c38.3,307.9,177.8,560.7,415,760.5c23,19.4,37.6,15.8,58.5-1.6c172.8-144.3,295.8-322.4,365.3-536.6
			C7933.2,4731.4,7956,4609.1,7949.8,4480.2z M7239,5481.1c13.8,70.9,25.4,130.4,37,189.9c3.1,0.4,6.2,0.7,9.4,1.1
			c24.4-37,49-73.9,72.9-111.2c3.5-5.4,6.8-13.6,5.3-19.2c-14.6-55.7-30.2-111.1-47.8-175c-27.1,32.7-47.5,57.5-74.6,90.2
			c-7.9-63.6-14.6-116.8-22.3-178.2c-40.8,38-74.8,69.5-111.6,103.7c-11.9-24.5-21.9-44.9-31.8-65.3c-2.9,0.4-5.9,0.7-8.8,1.1
			c-23.1,82.7-46.2,165.4-69.4,248.1c5.1,3.3,10.2,6.7,15.3,10c31.5-35.3,62.9-70.5,97.7-109.5c13.6,45.2,25.3,84,39.8,132.4
			C7181.1,5558.3,7206.8,5524.1,7239,5481.1z M7759.6,5482.1c31.8,41.8,57.6,75.8,88.7,116.6c14.6-47.8,26.7-87.2,41.4-135.6
			c37,40.7,69,75.7,100.9,110.8c3.6-2.4,7.3-4.8,10.9-7.2c-23.5-83.2-47-166.3-70.4-249.5c-2.8,0.2-5.5,0.5-8.3,0.7
			c-10.1,20.5-20.3,41.1-32,64.9c-37.6-35.3-71.2-66.8-111.4-104.5c-7.9,63.1-14.5,116.3-22.2,178.7c-27.6-33.2-48.1-57.9-74.3-89.4
			c-17.7,62.5-33,116-47.7,169.6c-1.4,5.1-1.2,12.5,1.5,16.7c25.4,39.9,51.5,79.3,77.4,118.9c3-0.8,6-1.7,9-2.5
			C7734.6,5610.6,7746.2,5550.9,7759.6,5482.1z M7863.5,5681.5c30.7,49.1,56,89.7,81.4,130.3c25.9-65.1,43-125.6,59.1-186.4
			c2.2-8.3,3.1-21.5-1.6-26.2c-35.3-35.1-72.2-68.7-110.4-104.4c-12.3,40.2-24.4,79.9-38.9,127.6c-30.9-39.3-56.2-71.5-88.2-112.2
			c-10.4,57-18.9,102.6-26.8,148.4c-2.3,13.4-8.9,30.2-3.5,39.9c22.5,40.7,48.9,79.3,78.6,126.2
			C7831.1,5773.8,7845.6,5732.4,7863.5,5681.5z M7135.1,5681.4c17.8,50.8,32.4,92.3,49.7,141.7c18.6-27.9,31.2-50.9,47.6-70.7
			c31.3-37.6,38.3-77,23.4-124.1c-11-34.9-14.2-72.2-20.9-108.4c-3.1-0.4-6.2-0.8-9.3-1.2c-24.9,32.8-49.9,65.5-79.9,104.9
			c-15.4-50.1-27.6-89.8-39.9-130c-38.1,36-73.2,68.7-107.5,102.2c-4.1,4-6.4,13.2-5,18.8c16.5,64.9,33.8,129.5,51,194.2
			c3.3,0.7,6.7,1.4,10,2C7079.5,5770.7,7104.5,5730.5,7135.1,5681.4z M7268.7,6083.9c0.1-0.8,0.1-1.7,0.2-2.5
			c19.5,0,39-0.5,58.5,0.1c31.5,1,57.5-7.9,77.8-34.1c16.4-21.2,11.6-43.9-14.9-51.6c-8.5-2.5-18.2-2-27.3-1.7
			c-181.4,7.1-358.3-19.7-531.6-71.7c-27.8-8.3-47.2-5.4-55.4,25.4c-8.6,32.2,1.1,53.6,30.9,60.7c65.6,15.5,131.5,29.9,197.7,42.6
			c7.9,1.5,23.6-7.9,26.6-15.7c10.4-26.6,28-45.4,55.6-41.7c27.4,3.7,36.3,29.4,37.8,54.8c1.1,18.7,9.1,25.7,27.7,26.6
			C7191.2,6077,7229.9,6080.8,7268.7,6083.9z M7707.3,5993.9c-28.7,0-57.8-2.6-86,1.1c-13.5,1.8-27.9,13.8-36.8,25.2
			c-3.2,4.1,7.4,20.3,13.3,30.1c15.5,25.8,41.2,31.4,68.4,30.7c59.6-1.5,119.2-4.7,178.8-5.9c20.6-0.4,27.8-8.9,29.4-28.8
			c2-25.2,11.1-50.5,39.7-52.9c26.5-2.3,43.1,16,53,41.1c3.1,7.9,16.3,18.6,22.7,17.4c70.7-14.1,141.2-29.7,211.2-47
			c8.9-2.2,19.3-16.1,21.2-26c9.2-48.6-13.4-68-61-54.1C8013,5968.1,7861.9,5992.7,7707.3,5993.9z M7497.4,5977.4
			c-20.9-32.3-54.1-51.1-50.7-93.5c7.6-92.6,13.3-185.3,19.3-278.1c1.3-19.9,0.2-39.9,0.2-59.9c-20.5,87.8-31.5,176-45.7,263.7
			c-8.5,52.8,3.3,116.9-70,140.6c-10.3-8.1-22.4-17.7-40.1-31.7c-4.9,24.2-8.7,43-13.3,66.2c18.2,0,30.7,0.9,43-0.2
			c57.3-4.8,103.7,12.9,139.4,60.1c5.1,6.7,34.5,6.6,39.6-0.2c35.9-47.1,82.5-64.2,139.6-60c13.1,1,26.3,0.1,43.9,0.1
			c-5.9-24.9-10.3-43-15.6-65.3c-16.8,13.2-29,22.8-40.7,31.9c-33.4-17.1-58.1-37.4-61-77.3c-2.9-39.9-9.5-79.6-15.1-119.3
			c-9.8-69.8-20-139.6-30.1-209.4c-7.1,11.2-9,22.3-8.4,33.2c5,92.8,5.3,186.3,17.6,278.1C7556.7,5910,7534.1,5940.9,7497.4,5977.4z
			 M7828.3,5876.7c18.7,30.9,32,54.4,46.9,76.8c4.5,6.8,15.2,16.4,19.8,14.8c7.9-2.6,16.3-11.9,19.3-20.3c10.3-29,19.2-58.7,27-88.5
			c2.5-9.4,3.4-22.1-1-29.9c-21.6-38.6-45.3-76.1-73.4-122.7c-18,51.2-32.7,93.1-50.2,143c-31.2-48-56.9-87.5-84.6-130.1
			c-29.9,65.8-41.3,168.1-26.8,229.9c3.9,16.7,3.9,38.8,31.7,35.2c24.5-3.1,54.6,8.2,64.3-29.4
			C7807.4,5931.8,7817.1,5909,7828.3,5876.7z M7134.5,5714.2c-66.9,71.4-99.9,143.8-50.8,232.3c4.6,8.4,11.1,20.3,18.2,21.4
			c6.7,1,17.4-8.5,22.5-16c14.9-21.9,27.9-45.1,46.2-75.4c12,34.6,21.4,58.9,28.9,83.8c9.6,31.7,36,23.7,57.1,23.5
			c10.7-0.1,27.2-7.8,30.8-16.4c35-83.2,3.3-161.9-17.6-251.5c-31.3,47.3-57.3,86.6-88.2,133.3
			C7164.3,5799.7,7149.9,5758.5,7134.5,5714.2z M7953.7,4688.1c-70.9,93.8-34.9,698.4,35.7,762.6
			C7977.5,5196.9,7965.7,4945.3,7953.7,4688.1z M7008.9,5458.5c76.6-105.2,104.3-695,36-767.7
			C7032.9,4946.1,7021,5199.7,7008.9,5458.5z M7844.3,5013c-64.3,72.7-50.6,160.4-63,241.3c-0.6,3.8,2.2,9.4,5.2,12.3
			c32.4,31.7,65.2,63.1,100.5,97.1c22.7-44.5,41.2-80.4,22.8-127.9c-19.8-51-30.6-105.4-45.6-158.3
			C7858.3,5056.9,7851.6,5036.6,7844.3,5013z M7113,5362c17.9-16.8,32.1-33.5,49.5-45.8c44.6-31.4,61.8-69.6,50.5-125.6
			c-12-59.7-8.3-123.3-58.1-173.8c-3.9,10.4-7.6,18.4-10.1,26.9c-17.8,61.5-32.6,124-53.9,184.3C7074,5276,7082.8,5316.7,7113,5362z
			 M8022.5,5641.4c-3.6-0.1-7.2-0.2-10.7-0.2c-8.8,32.2-13.7,66.1-27.2,96.2c-29.4,65.7-20.1,120.2,29.3,173.4
			c33.3,36,44.2,41.5,88,10.2C8075.5,5828.3,8049,5734.9,8022.5,5641.4z M6987.5,5642.5c-3.7-0.5-7.3-1-11-1.4
			c-26.8,94.4-53.7,188.8-80.2,282.3c54.4,28.4,58.2,27.6,89.7-16.5c13.9-19.5,28.6-38.6,41.4-58.9c5-8,9.9-19.6,7.9-27.8
			C7020.3,5760.6,7003.6,5701.6,6987.5,5642.5z M7740.9,5420.2c3.7-0.4,7.4-0.8,11-1.2c4.2-42.7,6.2-85.8,13.1-128
			c6.2-37.6-23.3-49.9-44.3-66c-4.3-3.3-28.2,17.2-41.8,28.3c-8.7,7.1-17.5,16-21.8,26c-3.7,8.6-5.5,22.8-0.9,29.4
			C7683.3,5346.8,7712.5,5383.2,7740.9,5420.2z M7246.5,5418.3c3.6,0.8,7.1,1.5,10.7,2.3c19.4-25,38.8-50,58.2-74.9
			c39.4-50.7,39.8-51-2.2-99c-9-10.3-29.3-26.1-32.1-23.8c-18.1,14.5-45.3,32.5-46.2,50.6
			C7232.4,5321.4,7241.8,5369.9,7246.5,5418.3z M7373,5523.5c4-0.1,8.1-0.1,12.1-0.2c8.8-37.3,18.3-74.4,26.4-111.9
			c11.9-55.7,3.2-73-54.9-105.7c-10.1,19.3-31.5,40.7-28.4,57.7C7338.3,5417.6,7357.4,5470.3,7373,5523.5z M7612.5,5524.7
			c4.2-0.1,8.3-0.1,12.5-0.2c12.9-43.4,22.9-87.8,39.4-129.7c15.7-40.2-1-64.7-33.8-91.7c-17.5,21.4-49.2,42.9-48.3,62.7
			C7584.9,5419.1,7601.5,5471.8,7612.5,5524.7z M7374.3,5578c-3.5-1.2-7.1-2.4-10.6-3.5c-20.1,30.4-40.3,60.7-60.2,91.2
			c-23.6,36.1-16.4,129.1,15.2,167.7C7337.6,5746.5,7356,5662.3,7374.3,5578z M7680.9,5838.1c50.1-92.5,27.5-195.2-58-267.2
			C7642.7,5661.9,7660.9,5746.1,7680.9,5838.1z M7924.5,6115c24.5-19.8,40.8-44.1,30.5-74.4c-4.9-14.5-22.1-28.2-37-34.1
			c-5.6-2.2-24.8,16.7-30.1,29.3C7872.2,6073.2,7896.1,6095.2,7924.5,6115z M7076.3,6126.1c13.4-17.8,22-28.5,29.7-39.9
			c16.5-24.4,11.5-49.3-5.2-69.7c-5.9-7.2-25.7-10.3-35-6c-26,12-29.2,37.7-22.4,61.8C7047.7,6087.8,7060.4,6100.9,7076.3,6126.1z
			 M7078,5967.1c-13.3-42.4-23.8-75.6-37.1-117.9c-26.2,37-46.1,65-69.7,98.3C7008.9,5954.4,7038.5,5959.8,7078,5967.1z
			 M7956.7,5848.4c-13.2,44.3-23.1,77.3-35.3,118.3c38.1-6.9,68.3-12.4,105.7-19.2C8002.9,5913.5,7983,5885.5,7956.7,5848.4z
			 M7440.8,6021.8c-54.7,70.6-54.7,70.6,13,108.4C7480.9,6087.2,7476.8,6047.7,7440.8,6021.8z M7544.5,6130.2
			c71.6-39.2,72.3-45.2,11.6-107.1C7521.7,6047.3,7517.5,6086.3,7544.5,6130.2z M8299.8,6025.8c12.9-49.5-16-90.7-62-91.5
			C8228.7,5999.5,8233.7,6007.2,8299.8,6025.8z M6698.7,6025.7c66.1-18.2,71.1-25.8,62.3-91.4C6715,5935,6686,5976.1,6698.7,6025.7z
			 M7783.1,5132.1c-2.5-1.6-5.1-3.2-7.6-4.7c-9.8,13.4-19.9,26.6-29.5,40.1c-29.1,41.1-27.8,46,23.2,75.4
			C7774,5204.7,7778.5,5168.4,7783.1,5132.1z M7228.6,5240.4c4,1.5,8.1,3,12.1,4.4c10.4-15.9,32.4-35.5,28.7-46.8
			c-8-25.1-29-46-44.7-68.7c-2.8,1.5-5.6,2.9-8.5,4.4C7220.5,5169.3,7224.6,5204.8,7228.6,5240.4z M7193,5978.6
			c-9-26.1-15.9-46-26.2-75.8c-15.7,28.3-25.6,46.2-39.1,70.5C7152.3,5975.3,7169.4,5976.7,7193,5978.6z M7829.5,5905.4
			c-8.8,28.4-14.9,48-22.9,74.1c24.1-3,41.7-5.2,64-7.9c-9.7-17.6-15.4-28.6-21.7-39.1C7844.9,5925.8,7839.9,5919.9,7829.5,5905.4z
			 M7483,3660.8c8.5-14.7,17.5-23.5,17.1-31.9c-0.3-6.6-12.4-12.5-19.2-18.8c-6.4,7.7-16.6,14.9-17.8,23.4
			C7462,3639.7,7472.8,3647.7,7483,3660.8z"/>
		<path fill="#C9A328" d="M7906.4,6232.7c3.3,7.7,4.2,12.5,6.9,15.8c6.6,8.2,14.1,15.7,21.2,23.5c5.1-8.1,10.5-16,15.1-24.4
			c3.8-6.9,5.1-16,10.3-21.3c13.3-13.5,27.4-25.2,12.4-46.5c-1.4-2,5.6-10,7.3-12.7c26.2,25.4,50,50.4,76.3,72.3
			c5.5,4.6,25.6,1.9,30.2-4.2c16.3-21.5,31.2-28,53.9-9.1c5.1,4.2,17.3,3.4,24.2,0.4c3.2-1.4,3.3-14,2-21
			c-3.9-21.3-8.6-42.5-13.9-63.5c-6-24.2-17-40.2-46.4-28.7c-5.6,2.2-14.5-4.2-28.9-8.9c64.1-24,81.8-14.8,93.3,40.7
			c2.8,13.4,5.1,26.9,8.5,40.2c6.5,25.3,18.9,38.8,47.2,24.7c6.5-3.2,16.4,0.6,24.8,1.2c0.3,3.3,0.7,6.6,1,9.9
			c-13.4,4.6-27.1,8.3-40.1,13.9c-25.6,11-50.3,24.5-76.4,33.8c-12.5,4.5-28.6,5-41.4,1.3c-18.2-5.2-26-3.6-32.3,16.3
			c-11.4,36-29.6,38.9-56.6,12.2c-21.7-21.5-64.2-15.7-83,9.1c-10.4,13.8-25,24.4-37.7,36.4c-2.3-2.6-4.5-5.2-6.8-7.8
			c7.4-5,18.1-8.4,21.2-15.4c2.5-5.4-2-17.6-7.3-22.3c-8-7.2-19.5-10.5-29.5-15.4c6.9-12.5,12.8-25.7,21.2-37
			C7887.3,6240.6,7896.3,6238.4,7906.4,6232.7z"/>
		<path fill="#C9A328" d="M7295.2,6251.3c18.1,18.1,30.8,30.7,43.5,43.3c3.6-16.3,6.7-32.7,11.2-48.7c1.8-6.6,6.5-12.3,13.5-25.1
			c11.6,39.6,37.8,39.3,64.8,39.6c59,0.6,59,1,92.3,43.1c9.1-11.8,16.1-25,26.7-33.5c10.1-8.1,24.1-11.3,43.2-19.6
			c1.6,23,5.2,40.9,2.8,57.9c-0.9,6.4-15.3,14.8-24.1,15.6c-27.5,2.4-57.3-6.2-74.2,28c-2.4,5-32.3,4.9-34.4,0.2
			c-16.5-35.6-49.7-28.3-77.2-32.4c-30.1-4.5-61.1-8.3-82.1,25.5c-6.1,9.8-24.9,11.7-39.9,12.2c11.9-10.3,29.6-18.6,34.2-31.5
			c4.8-13.7-3.8-31.7-4.7-47.9C7290.1,6269.6,7293.4,6260.9,7295.2,6251.3z M7478.4,6342.6c18.2-52.1,11.8-62.9-31.1-65.1
			c-17.2-0.9-34.6-2.1-51.5-0.1c-7.9,1-15,9.3-22.4,14.2c7.5,3.7,14.7,10,22.4,10.6C7426.9,6304.6,7459.4,6302,7478.4,6342.6z"/>
		<path fill="#C9A328" d="M6958.6,6302.4c55.8-13.2,27.8-63.3,47.6-93.2c2.7,10.4,4.4,21.2,8.5,30.9c3.3,7.7,9.1,19.2,15,20.1
			c13.3,1.9,27.3-1.8,41.1-3.2c-5.8-12.2-11.7-24.3-18.8-39.1c13.6-10.5,30.4-25.1,49-36.8c4.7-2.9,18.7,1.1,22.6,6.2
			c11.9,16,21,34.2,32.9,54.4c-8.3,3-16.5,3.9-21.6,8.3c-4.6,4-9.9,15.1-7.9,17.6c12.2,15.8,26.3,30,43.9,49.2
			c4.9-14,10.8-24.7,12.1-36c4.2-37.2,6.2-74.6,10.5-111.7c0.7-6.4,8.6-12,13.2-17.9c2.9,1.5,5.8,2.9,8.8,4.4
			c-8,52.5-14.8,105.3-25.3,157.3c-2,9.9-18.4,21.1-29.7,23.1c-6.4,1.1-16.1-14.9-24.1-23.5c-13.7-14.7-27.1-29.6-39.9-43.5
			C7048.4,6280.7,7003.5,6291.5,6958.6,6302.4z"/>
		<path fill="#C9A328" d="M6890.6,6167.1c-2.4,9.8-3.9,20-7.4,29.5c-9.5,25.8,2,35.2,26.4,38.6c24.9,3.4,27.9-10.2,30.2-29.8
			c1.1-9.7,10.6-18.3,18.3-30.5c4.8,8.6,6,9.7,5.8,10.5c-21.8,89.6-10.3,76.3-91.4,57.5c-38.5-8.9-76.4-21.1-114.5-31.8
			c-1.5-3.8-3-7.6-4.5-11.4c13.6-11.1,25.7-27.8,41.2-32.2c35-9.9,28.5-40.1,37.4-62.9c-12.8-4.2-25.6-8.3-39.8-13
			c17.5-2.8,35.8-5.8,60.9-9.9c-9.7,32.4-18.8,62.1-27.4,91.9c-5,17.3-15.2,38.2,13,43.7c23.9,4.7,27-13.5,29.4-32.3
			c1.1-8.5,8.7-16.2,13.3-24.3C6884.5,6163,6887.5,6165.1,6890.6,6167.1z"/>
		<path fill="#C9A328" d="M7631.1,6323.3c11.1-24,14.2-45.6,26.3-53.6c23.3-15.4,25.2-31.5,18.4-55.1c-4.1-13.9-3.3-29.3-4.7-44
			c4.8-0.5,9.5-1,14.3-1.5c3.8,30.6,8,61.1,11.3,91.7c2.1,19.2-1,43.3,29.4,38.4c26.4-4.2,23.2-22.6,16.1-42.2
			c-2.1-5.7,2.3-13.8,4.9-26.4c7.4,8.5,10.9,10.6,11.3,13.2c11.4,72,11.3,71.9-63.3,74.4C7678.1,6318.8,7661.3,6320.8,7631.1,6323.3
			z"/>
		<path fill="#C9A328" d="M7786.7,6350c28.7-29.1,42-52.9,12-81.6c-4.9-4.7-0.7-18.9-0.7-34.5
			C7849.6,6281.8,7846,6329.7,7786.7,6350z"/>
		<path fill="#C9A328" d="M7246.2,6155c9.7,10.6,17.1,15.3,16.5,18.6c-7.4,44.4-15.9,88.5-24.2,132.7c-4.1-0.7-8.2-1.4-12.2-2.1
			C7232.6,6256.9,7239,6209.5,7246.2,6155z"/>
		<path fill="#C9A328" d="M7474.7,5347.8c19.8,11.3,36.7,6.7,51.5-9.4c0.8-0.8,1.8-1.5,2.6-2.2C7658,5228.6,7658,5228.6,7658,5061
			c0-183.6-0.6-367.1,0.6-550.7c0.2-30.9-8.2-47.2-39.5-57.2c-33.4-10.7-64.9-28.6-95.5-46.3c-15.8-9.1-26.5-11.4-43.2-1.3
			c-22.3,13.4-47.5,22-71.5,32.6c27-15,53.6-30.7,81.3-44.3c6.5-3.2,18.3-2.5,24.5,1.4c112.3,71.8,238.7,97.6,368.1,111.8
			c28.2,3.1,37.2,10.5,35.6,38.6c-17.4,301-131.9,557-352.1,764.4c-20.8,19.6-42.9,37.7-65.5,57.5
			C7490.8,5360.1,7482.7,5353.9,7474.7,5347.8z"/>
		<path fill="#C9A328" d="M7410.5,4437.4c-5.9,3.4-11.6,7.4-17.8,10c-61,25-61,24.9-61,91.7c0,199.3,1.2,398.6-0.9,597.9
			c-0.5,43.4,8.8,78,41.6,106.7c9.9,8.6,16,21.6,23.8,32.6c-171.7-174.5-270.6-384.9-307-625.6c-5.8-38.4-6.9-77.7-7.8-116.6
			c-0.2-8.2,9.3-23.6,15.2-24C7205,4501.7,7308,4470.8,7410.5,4437.4z"/>
		<path fill="#C9A328" d="M7154,6027.2c23,0,45.9,0,68.9,0c0.2,1.7,0.4,3.4,0.6,5.1c-23.3,0-46.6,0-69.9,0
			C7153.7,6030.6,7153.8,6028.9,7154,6027.2z"/>
		<path fill="#C9A328" d="M7845,6035c-23.5,0-47,0-70.5,0c0-2,0-4,0-6c23.4,0,46.8,0,70.2,0C7844.8,6031,7844.9,6033,7845,6035z"/>
		<path fill="#C9A328" d="M7478.4,6342.6c-19-40.6-51.5-38-82.5-40.4c-7.7-0.6-15-6.9-22.4-10.6c7.4-5,14.5-13.3,22.4-14.2
			c16.9-2,34.3-0.8,51.5,0.1C7490.2,6279.7,7496.6,6290.5,7478.4,6342.6z"/>
	</g>
</g>
</svg>
